<svg xmlns="http://www.w3.org/2000/svg" viewBox="0 0 24 24" fill="currentColor">
  <path d="M12 0C5.37 0 0 5.37 0 12c0 5.28 3.43 9.75 8.2 11.32.6.11.82-.26.82-.58v-2.02c-3.34.72-4.04-1.61-4.04-1.61-.55-1.39-1.34-1.76-1.34-1.76-1.1-.75.08-.73.08-.73 1.22.09 1.86 1.25 1.86 1.25 1.08 1.85 2.84 1.31 3.53 1 .11-.79.42-1.32.76-1.62-2.67-.3-5.47-1.34-5.47-5.93 0-1.31.47-2.38 1.25-3.22-.13-.3-.54-1.52.12-3.17 0 0 1-.32 3.3 1.23A11.54 11.54 0 0112 4.97c1.03 0 2.06.14 3.04.42 2.28-1.55 3.28-1.23 3.28-1.23.66 1.65.25 2.87.12 3.17.78.84 1.25 1.91 1.25 3.22 0 4.6-2.8 5.63-5.48 5.92.43.37.82 1.1.82 2.22v3.29c0 .32.21.7.83.58C20.57 21.75 24 17.28 24 12c0-6.63-5.37-12-12-12z"/>
</svg>
